{"title":"Human Trafficking 2005 Miniserie DVD9rip 2parts English Klam","uid":6038704,"size":1880991658,"categoryP":"video","categoryS":"movies","magnet":"?xt=urn:btih:d8541520d03ae1fcde15a71f6346ff7f92fc3675&amp;dn=Human+Trafficking+2005+Miniserie+DVD9rip+2parts+English+Klam&amp;tr=udp%3A%2F%2Ftracker.openbittorrent.com%3A80&amp;tr=udp%3A%2F%2Fopen.demonii.com%3A1337&amp;tr=udp%3A%2F%2Ftracker.coppersurfer.tk%3A6969&amp;tr=udp%3A%2F%2Fexodus.desync.com%3A6969","seeders":1,"leechers":0,"uploader":"Klambake","files":-1,"time":1292320883,"description":"[img]http://img262.imageshack.us/img262/1582/humantrafficking.jpg[/img]\n\nWith: Mira Sorvino, Donald Sutherland and Robert Carlyle\n\nHundreds of thousands of young women have vanished from their everyday lives-forced by violence into a hellish existence of brutality and prostitution. They're a profitable commodity in the multi-billion-dollar industry of modern slavery. The underworld calls them human traffic...\n\nGeneral:\n\nComplete name                    : Human\\Trafficking Part One.avi\nFormat                           : AVI\nFormat/Info                      : Audio Video Interleave\nFile size                        : 896 MiB\nDuration                         : 1h 25mn\nOverall bit rate                 : 1 461 Kbps\n\nVideo:\n\nFormat                           : MPEG-4 Visual\nFormat profile                   : Simple@L3\nFormat settings, BVOP            : No\nFormat settings, QPel            : No\nFormat settings, GMC             : No warppoints\nFormat settings, Matrix          : Default (H.263)\nCodec ID                         : XVID\nCodec ID/Hint                    : XviD\nDuration                         : 1h 25mn\nBit rate                         : 1 258 Kbps\nWidth                            : 720 pixels\nHeight                           : 576 pixels\nDisplay aspect ratio             : 5:4\nFrame rate                       : 25.000 fps\nStandard                         : PAL\nColor space                      : YUV\nChroma subsampling               : 4:2:0\nBit depth                        : 8 bits\nScan type                        : Progressive\nBits/(Pixel*Frame)               : 0.121\nStream size                      : 771 MiB (86%)\nWriting library                  : XviD 1.1.2 (UTC 2006-11-01)\n\nAudio:\n\nFormat                           : AC-3\nFormat/Info                      : Audio Coding 3\nMode extension                   : CM (complete main)\nCodec ID                         : 2000\nDuration                         : 1h 25mn\nBit rate mode                    : Constant\nBit rate                         : 192 Kbps\nChannel(s)                       : 2 channels\nChannel positions                : Front: L R\nSampling rate                    : 48.0 KHz\nBit depth                        : 16 bits\nStream size                      : 118 MiB (13%)\nAlignment                        : Aligned on interleaves\nInterleave, duration             : 32 ms (0.80 video frame)","torrent":{"xt":"urn:btih:d8541520d03ae1fcde15a71f6346ff7f92fc3675","amp;dn":"Human+Trafficking+2005+Miniserie+DVD9rip+2parts+English+Klam","amp;tr":["udp%3A%2F%2Ftracker.openbittorrent.com%3A80","udp%3A%2F%2Fopen.demonii.com%3A1337","udp%3A%2F%2Ftracker.coppersurfer.tk%3A6969","udp%3A%2F%2Fexodus.desync.com%3A6969"],"infoHash":"d8541520d03ae1fcde15a71f6346ff7f92fc3675","infoHashBuffer":{"type":"Buffer","data":[216,84,21,32,208,58,225,252,222,21,167,31,99,70,255,127,146,252,54,117]},"announce":[],"urlList":[]}}